<svg xmlns="http://www.w3.org/2000/svg" viewBox="0 0 1000 990"><g><path d="M501.71,209.52c-166.14,0-300.83,134.68-300.83,300.83V816.78c0,166.14,134.69,300.83,300.83,300.83S802.54,982.92,802.54,816.78V510.35C802.54,344.2,667.85,209.52,501.71,209.52Z" fill="#ffffff" stroke="#592d3d" stroke-miterlimit="10" stroke-width="12px"></path><path d="M610,758.72c90.76,0,72,114.24,72.87,241.28H610Z" fill="#D8985D"></path><path d="M632.74,831.87,610,870l11.38,130h31.76C653.91,819.73,632.74,831.87,632.74,831.87Z" fill="#C6854E"></path><path d="M233.25,500c0-147.32,119.43-266.75,266.75-266.75S766.75,352.68,766.75,500A266.22,266.22,0,0,1,668.1,707.12q-8.21,6.68-16.94,12.69C591,758,515,758,446.39,751.89c-6.66-1-13.3-2.26-19.89-3.71-26.33-5.8-51.82-14.75-75.37-27.8Q342.4,715,334.2,708.76a199.59,199.59,0,0,1-15.8-13.38q-7.14-6.63-13.79-13.78A265.86,265.86,0,0,1,233.25,500Z" fill="#D8985D"></path><path d="M269.61,634.48c.7,1.2,1.39,2.4,2.11,3.58.43.72.88,1.42,1.33,2.14.66,1.07,1.32,2.14,2,3.19.48.76,1,1.5,1.46,2.24.66,1,1.32,2,2,3,.51.76,1,1.52,1.56,2.28.66,1,1.32,1.92,2,2.88.54.77,1.1,1.53,1.65,2.3s1.34,1.85,2,2.77,1.15,1.53,1.73,2.29,1.37,1.8,2.07,2.7,1.19,1.51,1.79,2.26,1.41,1.76,2.12,2.63,1.23,1.49,1.85,2.23,1.44,1.72,2.17,2.57,1.27,1.47,1.91,2.2l2.22,2.5c.65.73,1.31,1.44,2,2.16.86.94,1.73,1.87,2.6,2.79l1.21,1.28c1.29,1.34,2.59,2.68,3.91,4l.26.27c1.29,1.28,2.6,2.55,3.91,3.81l1.58,1.5c.95.89,1.9,1.78,2.86,2.66l1.16,1.06c1,.94,2.09,1.86,3.14,2.78q4.9,4.27,10,8.19,8.19,6.24,16.93,11.62c23.55,13,49,22,75.37,27.8,6.59,1.45,13.23,2.7,19.89,3.71,42.1,3.75,87,5.18,129.28-3.08C508.45,729,185.59,612.74,388.8,257.48h0c-2.72,1.25-5.4,2.54-8.06,3.88l-.59.29c-1.22.61-2.44,1.24-3.65,1.88l-1,.53c-3.76,2-7.48,4.07-11.13,6.23l-.9.53c-1.16.69-2.31,1.39-3.46,2.1l-.87.54q-5.36,3.35-10.55,6.93l-1.08.75c-1.09.76-2.16,1.52-3.23,2.29l-.66.47q-3.27,2.39-6.46,4.84l-.62.48c-1,.78-2,1.58-3,2.39l-1.17.94c-1,.81-2,1.62-3,2.45l0,0c-2.11,1.75-4.19,3.55-6.24,5.37l-1.14,1-2.69,2.45L318,305q-4.28,4-8.37,8.17l-1.38,1.41c-.79.82-1.58,1.64-2.36,2.47-.46.49-.92,1-1.37,1.48q-2.06,2.2-4.06,4.46c-.45.51-.91,1-1.36,1.54-.71.81-1.41,1.63-2.11,2.45l-1.51,1.79c-.68.81-1.36,1.62-2,2.44-.54.66-1.08,1.33-1.61,2-1.07,1.33-2.12,2.66-3.16,4-.54.7-1.08,1.4-1.61,2.11s-1.2,1.59-1.79,2.4-1.07,1.45-1.59,2.18-1.13,1.55-1.68,2.33q-1.42,2-2.8,4.05c-.5.73-1,1.48-1.49,2.22s-1.1,1.66-1.64,2.5l-1.49,2.31-1.68,2.71c-.43.69-.86,1.38-1.28,2.07-.89,1.46-1.75,2.93-2.61,4.4l-1.22,2.16c-.54.95-1.08,1.91-1.61,2.87-.4.73-.8,1.46-1.19,2.19-.64,1.19-1.27,2.39-1.9,3.59l-1.2,2.34c-.64,1.28-1.28,2.55-1.91,3.84-.33.69-.67,1.39-1,2.09-.52,1.09-1,2.19-1.53,3.29-.31.66-.61,1.32-.91,2q-1.11,2.47-2.17,5c-.22.52-.43,1.05-.65,1.57-.53,1.27-1.05,2.54-1.56,3.82-.27.67-.53,1.34-.79,2-.5,1.26-1,2.53-1.45,3.8-.21.55-.42,1.1-.62,1.65q-.94,2.63-1.85,5.26l-.56,1.7q-.66,2-1.29,4l-.6,1.91c-.47,1.54-.93,3.08-1.37,4.63-.1.33-.2.66-.29,1q-.78,2.76-1.5,5.54c-.16.59-.3,1.19-.45,1.78-.35,1.39-.69,2.78-1,4.18l-.42,1.75c-.43,1.9-.85,3.8-1.24,5.71l-.15.77q-.51,2.55-1,5.1c-.11.61-.21,1.21-.32,1.82-.26,1.49-.51,3-.74,4.5-.08.51-.17,1-.24,1.52-.3,1.95-.57,3.91-.83,5.88l-.15,1.3c-.2,1.59-.38,3.19-.55,4.79-.06.6-.13,1.2-.19,1.81-.16,1.68-.31,3.37-.45,5.06,0,.35-.06.69-.08,1q-.22,3-.39,6.05c0,.53,0,1.07-.07,1.6q-.1,2.36-.18,4.71c0,.59,0,1.18,0,1.77,0,2.05-.08,4.11-.08,6.17,0,0,0,.07,0,.1,0,2.22,0,4.42.08,6.62,0,.76.06,1.52.08,2.28.05,1.47.1,2.94.17,4.41,0,.89.11,1.77.16,2.66.08,1.33.15,2.66.25,4,.07,1,.16,1.89.24,2.83.11,1.26.21,2.52.34,3.77.09,1,.21,1.94.31,2.91.14,1.21.27,2.43.42,3.64.12,1,.26,2,.39,2.95.16,1.18.32,2.37.5,3.55.15,1,.31,2,.47,3,.18,1.16.37,2.33.57,3.49.18,1,.36,2,.55,3,.21,1.15.43,2.3.65,3.44s.41,2,.62,3c.24,1.14.48,2.27.74,3.4s.44,2,.68,2.93c.26,1.13.54,2.25.82,3.36s.49,1.95.74,2.91c.3,1.12.6,2.23.91,3.34.26,1,.53,1.92.81,2.87.32,1.11.65,2.21,1,3.31s.58,1.89.88,2.84.7,2.19,1.06,3.28.62,1.87.94,2.8c.38,1.09.76,2.18,1.15,3.27.33.91.65,1.83,1,2.74l1.24,3.27c.35.89.69,1.79,1,2.68.44,1.09.89,2.19,1.34,3.28.36.86.71,1.73,1.08,2.59.47,1.12,1,2.22,1.45,3.33.37.82.73,1.65,1.1,2.47.52,1.16,1.07,2.3,1.6,3.44l1.08,2.3c.61,1.26,1.24,2.5,1.87,3.75.32.63.62,1.27.95,1.9q2.88,5.61,6,11.07C268.88,633.26,269.25,633.87,269.61,634.48Z" fill="#C6854E"></path><path d="M233.25,500c0-147.32,119.43-266.75,266.75-266.75S766.75,352.68,766.75,500A266.22,266.22,0,0,1,668.1,707.12q-8.21,6.68-16.94,12.69C591,758,515,758,446.39,751.89c-6.66-1-13.3-2.26-19.89-3.71-26.33-5.8-51.82-14.75-75.37-27.8Q342.4,715,334.2,708.76a199.59,199.59,0,0,1-15.8-13.38q-7.14-6.63-13.79-13.78A265.86,265.86,0,0,1,233.25,500Z" fill="none" stroke="#592d3d" stroke-miterlimit="10" stroke-width="12px"></path><path d="M386.12,758.72c-90.77,0-72,114.24-72.87,241.28h72.87Z" fill="#D8985D"></path><path d="M367.23,831.87,390,870l-11.39,130H346.88C346.07,819.73,367.23,831.87,367.23,831.87Z" fill="#C6854E"></path><path d="M619.47,1070H380.53a13.28,13.28,0,0,1-13.27-13.28V772a13.28,13.28,0,0,1,13.27-13.28H613.76c13.09,0,19,7.66,19,19.88v278.08A13.28,13.28,0,0,1,619.47,1070Z" fill="#D8985D"></path><path d="M629.05,766.62a19.33,19.33,0,0,1-2.51-4,17.25,17.25,0,0,0-8.28-3.51,28.88,28.88,0,0,0-4.5-.34H380.53A13.28,13.28,0,0,0,367.26,772c29,10.42,83.29,16.24,132.74,16.24C563.06,788.24,604.38,778.89,629.05,766.62Z" fill="#C6854E"></path><path d="M610,758.72c90.76,0,72,114.24,72.87,241.28H632.74" fill="none" stroke="#592d3d" stroke-linecap="square" stroke-miterlimit="10" stroke-width="12px"></path><path d="M386.12,758.72c-90.77,0-72,114.24-72.87,241.28h50.07" fill="none" stroke="#592d3d" stroke-linecap="square" stroke-miterlimit="10" stroke-width="12px"></path><path d="M380.53,758.82l233.23-.1" fill="none" stroke="#592d3d" stroke-miterlimit="10" stroke-width="12px"></path><path d="M380.53,1070H497.15C388,1070,396.24,838.82,367.26,838.82v217.86A13.28,13.28,0,0,0,380.53,1070Z" fill="#C6854E"></path><path d="M361.26,860.85c-.19-3.67-.11-7.34.05-11s.47-7.35.86-11c.2-1.84.4-3.67.65-5.51s.49-3.67.85-5.51a44.18,44.18,0,0,1,3.59-11,44.18,44.18,0,0,1,3.59,11c.36,1.84.62,3.67.85,5.51s.45,3.67.65,5.51c.38,3.67.68,7.34.85,11s.25,7.34.06,11Z" fill="#592d3d"></path><path d="M632.74,870v8c.26,34,.26,69,0,102.75,0,2.87,0,5.72,0,8.53v67.41A13.28,13.28,0,0,1,619.47,1070H380.53a13.28,13.28,0,0,1-13.27-13.28V998.52c0-2.51,0-5.07,0-7.65-.25-34.87-.25-69.87,0-105.3V860.85" fill="none" stroke="#592d3d" stroke-miterlimit="10" stroke-width="12px"></path><path d="M626.74,870c-.19-4.17-.1-8.35.06-12.53s.47-8.35.85-12.53c.2-2.09.41-4.18.65-6.27s.49-4.17.85-6.26a55.09,55.09,0,0,1,3.59-12.53,55.09,55.09,0,0,1,3.59,12.53c.36,2.09.62,4.18.85,6.26s.45,4.18.65,6.27c.38,4.18.69,8.35.85,12.53s.25,8.36.06,12.53Z" fill="#592d3d"></path><path d="M502.07,878.86A69.31,69.31,0,1,1,371,847.39" fill="none" stroke="#592d3d" stroke-miterlimit="10" stroke-width="12px"></path><path d="M371,847.39a69.68,69.68,0,0,1,15-19.67" fill="#D8985D"></path><path d="M365.65,844.66a27,27,0,0,1,3.38-5.84,37.22,37.22,0,0,1,4.53-5c.84-.76,1.69-1.5,2.58-2.19a21.1,21.1,0,0,1,2.81-1.92,15,15,0,0,1,7-2,25,25,0,0,1-1.75,6.81c-.39,1-.83,1.88-1.29,2.77l-1.3,2.67c-.85,1.76-1.69,3.49-2.55,5.19a54.51,54.51,0,0,1-2.76,5Z" fill="#592d3d"></path><path d="M489.33,838.82a69,69,0,0,1,12.74,40" fill="#D8985D"></path><path d="M489.33,838.82a26.55,26.55,0,0,1,8.69,7.55,38.8,38.8,0,0,1,3.1,4.79c.93,1.67,1.77,3.39,2.55,5.15a55.12,55.12,0,0,1,3.46,11,48,48,0,0,1,.94,11.53h-12c-.19-3.25-.36-6.48-.7-9.73s-.77-6.48-1.4-9.74l-.5-2.44-.58-2.45c-.42-1.63-.87-3.26-1.29-4.93A104.17,104.17,0,0,1,489.33,838.82Z" fill="#592d3d"></path><path d="M641.65,878.86a69.14,69.14,0,0,0-21.94-50.6" fill="#D8985D"></path><path d="M635.65,878.86A107,107,0,0,0,634.39,866a81.92,81.92,0,0,0-3.12-12.67c-.34-1-.74-2.07-1.11-3.11s-.84-2.05-1.25-3.09-.94-2-1.38-3.05l-1.46-3c-2-4.1-4.17-8.19-6.36-12.75a35.76,35.76,0,0,1,12.22,8.61c.83.94,1.7,1.86,2.47,2.85s1.54,2,2.25,3,1.43,2.09,2.07,3.18,1.31,2.18,1.88,3.32A62.19,62.19,0,0,1,646,863.58a56.6,56.6,0,0,1,1.62,15.28Z" fill="#592d3d"></path><path d="M503,878.86a69.31,69.31,0,1,0,138.61,0" fill="none" stroke="#592d3d" stroke-miterlimit="10" stroke-width="12px"></path><path d="M515.77,838.82a69,69,0,0,0-12.73,40" fill="#D8985D"></path><path d="M515.77,838.82a104.17,104.17,0,0,1-2.27,10.75c-.42,1.67-.87,3.3-1.29,4.93l-.57,2.45-.5,2.44c-.63,3.26-1.09,6.5-1.41,9.74s-.5,6.48-.69,9.73H497a47,47,0,0,1,.94-11.53,54.48,54.48,0,0,1,3.46-11c.77-1.76,1.61-3.48,2.54-5.15a40,40,0,0,1,3.1-4.79A26.66,26.66,0,0,1,515.77,838.82Z" fill="#592d3d"></path><line x1="383.44" y1="837.55" x2="383.44" y2="758.72" fill="none" stroke="#592d3d" stroke-miterlimit="10" stroke-width="12px"></line><line x1="616.46" y1="837.55" x2="616.46" y2="758.72" fill="none" stroke="#592d3d" stroke-miterlimit="10" stroke-width="12px"></line><path d="M470.5,897.78h53.9v19.7c-17.74-6.05-35.71-5.9-53.9,0Z" fill="#D67070" stroke="#592d3d" stroke-miterlimit="10" stroke-width="12px"></path><path d="M638.1,878.86a69.06,69.06,0,0,0-18.63-47.28c-4.22-4.52-44.27,6.19-67.81,27.26-23.11,20.69-43.23,54.49-40.35,58.75A69.31,69.31,0,0,0,638.1,878.86Z" fill="#D67070" stroke="#592d3d" stroke-miterlimit="10" stroke-width="12px"></path><path d="M598.11,848.39c-6.12,3.67-12.15,7.18-18,11a154.79,154.79,0,0,0-16.53,12.18c-5.15,4.46-10.11,9.32-15,14.26s-9.69,10-14.75,15.07a100,100,0,0,1,11.18-18.17A106.06,106.06,0,0,1,559.72,867a84.36,84.36,0,0,1,18.14-11.73A83.45,83.45,0,0,1,598.11,848.39Z" fill="#ffffff"></path><path d="M361.9,878.86a69.06,69.06,0,0,1,18.63-47.28c4.22-4.52,44.27,6.19,67.81,27.26,23.11,20.69,43.23,54.49,40.35,58.75A69.31,69.31,0,0,1,361.9,878.86Z" fill="#D67070" stroke="#592d3d" stroke-miterlimit="10" stroke-width="12px"></path><path d="M455.75,938.92a85.36,85.36,0,0,1-85.36-85.36,86.38,86.38,0,0,1,.44-8.71,69.31,69.31,0,0,0,96.31,93.29A85.67,85.67,0,0,1,455.75,938.92Z" fill="#C46565"></path><path d="M361.9,878.86a69.06,69.06,0,0,1,18.63-47.28c4.22-4.52,44.27,6.19,67.81,27.26,23.11,20.69,43.23,54.49,40.35,58.75A69.31,69.31,0,0,1,361.9,878.86Z" fill="none" stroke="#592d3d" stroke-miterlimit="10" stroke-width="12px"></path><path d="M401.89,848.39a83.45,83.45,0,0,1,20.25,6.87A84.36,84.36,0,0,1,440.28,867a106.06,106.06,0,0,1,14.65,15.71,100,100,0,0,1,11.18,18.17c-5.06-5-9.84-10.13-14.75-15.07s-9.84-9.8-15-14.26a154.79,154.79,0,0,0-16.53-12.18C414,855.57,408,852.06,401.89,848.39Z" fill="#ffffff"></path><path d="M613.76,758.16H559.55v.1H589a175.21,175.21,0,0,1-2.12,27.22q-1,6.57-2.57,12.88a116.51,116.51,0,0,1-14.71,34.22,92,92,0,0,1-6.61,9c-37.06,37-95.95,39-131.74-1.19A98.26,98.26,0,0,1,420.8,825a124.07,124.07,0,0,1-13.4-39.48q-1-6.57-1.58-13.39c-.35-4.54-.54-9.15-.54-13.82h29.47v-.1H380.53c.82,22.29-1.59,75.64-9.11,84.48l-4.16,213.48a13.27,13.27,0,0,0,13.27,13.27H619.47a13.27,13.27,0,0,0,13.27-13.27l-2.38-215.36C620.61,840.76,613.42,783.07,613.76,758.16Z" fill="#D67070"></path><polygon points="632.74 831.31 609.95 869.4 621.34 999.43 632.94 999.43 632.94 893.78 632.74 831.31" fill="#C46565"></polygon><path d="M380.53,1069.39H497.15c-109.2,0-100.91-231.14-129.89-231.14v217.87A13.27,13.27,0,0,0,380.53,1069.39Z" fill="#C46565"></path><path d="M361.26,860.4a63.71,63.71,0,0,1-.1-8.29q.19-4.15.71-8.31c.18-1.39.35-2.77.57-4.16s.44-2.77.78-4.16a27.84,27.84,0,0,1,3.44-8.35,27.54,27.54,0,0,1,3.73,8.22c.39,1.38.68,2.76.93,4.13s.5,2.76.72,4.14c.44,2.75.79,5.51,1,8.27a62,62,0,0,1,.21,8.29Z" fill="#592d3d"></path><path d="M632.74,869.4v8c.26,34,.26,69,0,102.76,0,2.87,0,5.72,0,8.53v67.41a13.27,13.27,0,0,1-13.27,13.27H380.53a13.27,13.27,0,0,1-13.27-13.27V998q0-3.76,0-7.65c-.25-34.86-.25-69.86,0-105.3V860.29" fill="none" stroke="#592d3d" stroke-miterlimit="10" stroke-width="12px"></path><path d="M626.76,869.38a65.79,65.79,0,0,1,.65-8.53q.57-4.25,1.46-8.47c.3-1.41.6-2.82.94-4.22s.69-2.81,1.15-4.21a29.21,29.21,0,0,1,4.18-8.28,28.9,28.9,0,0,1,3,8.78c.26,1.45.42,2.89.55,4.33s.25,2.88.35,4.31c.18,2.87.28,5.74.25,8.59a67.65,67.65,0,0,1-.54,8.54Z" fill="#592d3d"></path><path d="M368.1,833c21.58-5.27,12.43-74.73,12.43-74.73l233.23-.1s3.93,76.62,19.18,82.92" fill="none" stroke="#592d3d" stroke-miterlimit="10" stroke-width="12px"></path><path d="M589,758.26a175.22,175.22,0,0,1-2.11,27.22q-1,6.57-2.57,12.88a116.51,116.51,0,0,1-14.71,34.22,92,92,0,0,1-6.61,9c-37.06,37-95.95,39-131.74-1.19A98.26,98.26,0,0,1,420.8,825a124.07,124.07,0,0,1-13.4-39.48q-1-6.57-1.58-13.39c-.35-4.54-.54-9.15-.54-13.82" fill="none" stroke="#592d3d" stroke-miterlimit="10" stroke-width="12px"></path><g transform="translate(0 30)"><path d="M566.88,917.83c0-8.86-11.1-17.26-28.11-22.47,3.93-17.34,2.18-31.13-5.51-35.55a9.56,9.56,0,0,0-6.08-1.56c-8,.13-17.31,5.35-27.23,14.62C490,863.65,479,858.2,472.71,858.36c-3.16.09-4.37.52-6.16,1.56-7.67,4.41-9.38,18.18-5.43,35.47-17,5.23-28,13.61-28,22.44s11.1,17.26,28.11,22.47c-3.93,17.34-2.18,31.13,5.51,35.55a11.93,11.93,0,0,0,6.13,1.53c7.5,0,17.31-5.35,27.24-14.62,9.92,9.22,19.74,14.51,27.24,14.51a12.11,12.11,0,0,0,6.16-1.53c7.66-4.42,9.38-18.19,5.42-35.47C555.84,935.06,566.88,926.66,566.88,917.83Zm-39.72-53.49v0a6.32,6.32,0,0,1,3.1.71c3.71,2.13,5.32,10.23,4.07,20.64-.3,2.56-.79,5.26-1.39,8a133,133,0,0,0-17.32-3,132.78,132.78,0,0,0-11.34-13.63C513.16,868.87,521.49,864.35,527.16,864.34Zm-51.32,67.45q1.92,3.27,3.93,6.38c-3.87-.57-7.61-1.28-11.18-2.15,1-3.52,2.26-7.15,3.68-10.77C473.39,927.43,474.56,929.61,475.84,931.79Zm-7.33-32.15c3.57-.84,7.33-1.58,11.23-2.15-1.33,2.1-2.67,4.25-3.92,6.46s-2.43,4.36-3.55,6.54A114.8,114.8,0,0,1,468.51,899.64Zm6.95,18.27c1.69-3.65,3.6-7.31,5.65-10.88s4.3-7.17,6.57-10.41c4.06-.36,8.18-.55,12.32-.55s8.23.19,12.27.52c2.26,3.24,4.47,6.71,6.6,10.36s4,7.2,5.67,10.85c-1.72,3.66-3.6,7.31-5.65,10.88s-4.3,7.17-6.57,10.42c-4.06.35-8.18.54-12.32.54s-8.23-.19-12.27-.52c-2.26-3.24-4.47-6.7-6.6-10.36S477.18,921.56,475.46,917.91Zm48.7,13.8c1.25-2.18,2.42-4.39,3.54-6.57A114.8,114.8,0,0,1,531.46,936c-3.57.87-7.33,1.61-11.23,2.18C521.57,936.07,522.9,933.92,524.16,931.71Zm0-27.84c-1.25-2.18-2.59-4.31-3.93-6.38q5.82.85,11.18,2.15c-1,3.52-2.26,7.15-3.68,10.77C526.58,908.23,525.41,906.05,524.13,903.87ZM507.5,890.15c-2.46-.1-5-.19-7.5-.19s-5.1.06-7.58.19a105.71,105.71,0,0,1,7.5-8.72A114.37,114.37,0,0,1,507.5,890.15Zm-37.93-25a6.08,6.08,0,0,1,3.14-.71v0c5.64,0,14,4.5,22.9,12.71a129.42,129.42,0,0,0-11.26,13.6,129.07,129.07,0,0,0-17.34,3c-.63-2.72-1.09-5.37-1.42-7.9C464.31,875.43,465.89,867.33,469.57,865.18Zm-6.87,69.23c-2.7-.85-5.26-1.78-7.63-2.78-9.66-4.12-15.9-9.52-15.9-13.8s6.24-9.71,15.9-13.8c2.34-1,4.9-1.91,7.55-2.75a130.83,130.83,0,0,0,6.13,16.6A130.68,130.68,0,0,0,462.7,934.41Zm10.12,36.91a6.43,6.43,0,0,1-3.08-.73c-3.71-2.13-5.32-10.23-4.07-20.64.3-2.57.79-5.26,1.39-8a131.33,131.33,0,0,0,17.32,3,131.87,131.87,0,0,0,11.34,13.64C486.83,966.8,478.49,971.32,472.82,971.32Zm27.23-17.09a114.59,114.59,0,0,1-7.58-8.73c2.46.11,5,.19,7.5.19s5.1-.05,7.58-.19A105.91,105.91,0,0,1,500.05,954.23Zm30.38,16.25a6.08,6.08,0,0,1-3.14.71c-5.64,0-14-4.5-22.9-12.71a129.42,129.42,0,0,0,11.26-13.6,129.07,129.07,0,0,0,17.34-3,75.63,75.63,0,0,1,1.42,7.93C535.69,960.23,534.11,968.32,530.43,970.48Zm14.48-38.85c-2.35,1-4.91,1.9-7.56,2.75a131.52,131.52,0,0,0-6.13-16.61,129,129,0,0,0,6-16.52c2.7.85,5.26,1.77,7.66,2.78,9.66,4.12,15.9,9.52,15.9,13.8S554.56,927.54,544.91,931.63Z" stroke="#ffffff" stroke-width="16px"></path><circle cx="499.97" cy="917.83" r="12.46" stroke="#ffffff" stroke-width="24px"></circle><path d="M566.88,917.83c0-8.86-11.1-17.26-28.11-22.47,3.93-17.34,2.18-31.13-5.51-35.55a9.56,9.56,0,0,0-6.08-1.56c-8,.13-17.31,5.35-27.23,14.62C490,863.65,479,858.2,472.71,858.36c-3.16.09-4.37.52-6.16,1.56-7.67,4.41-9.38,18.18-5.43,35.47-17,5.23-28,13.61-28,22.44s11.1,17.26,28.11,22.47c-3.93,17.34-2.18,31.13,5.51,35.55a11.93,11.93,0,0,0,6.13,1.53c7.5,0,17.31-5.35,27.24-14.62,9.92,9.22,19.74,14.51,27.24,14.51a12.11,12.11,0,0,0,6.16-1.53c7.66-4.42,9.38-18.19,5.42-35.47C555.84,935.06,566.88,926.66,566.88,917.83Zm-39.72-53.49v0a6.32,6.32,0,0,1,3.1.71c3.71,2.13,5.32,10.23,4.07,20.64-.3,2.56-.79,5.26-1.39,8a133,133,0,0,0-17.32-3,132.78,132.78,0,0,0-11.34-13.63C513.16,868.87,521.49,864.35,527.16,864.34Zm-51.32,67.45q1.92,3.27,3.93,6.38c-3.87-.57-7.61-1.28-11.18-2.15,1-3.52,2.26-7.15,3.68-10.77C473.39,927.43,474.56,929.61,475.84,931.79Zm-7.33-32.15c3.57-.84,7.33-1.58,11.23-2.15-1.33,2.1-2.67,4.25-3.92,6.46s-2.43,4.36-3.55,6.54A114.8,114.8,0,0,1,468.51,899.64Zm6.95,18.27c1.69-3.65,3.6-7.31,5.65-10.88s4.3-7.17,6.57-10.41c4.06-.36,8.18-.55,12.32-.55s8.23.19,12.27.52c2.26,3.24,4.47,6.71,6.6,10.36s4,7.2,5.67,10.85c-1.72,3.66-3.6,7.31-5.65,10.88s-4.3,7.17-6.57,10.42c-4.06.35-8.18.54-12.32.54s-8.23-.19-12.27-.52c-2.26-3.24-4.47-6.7-6.6-10.36S477.18,921.56,475.46,917.91Zm48.7,13.8c1.25-2.18,2.42-4.39,3.54-6.57A114.8,114.8,0,0,1,531.46,936c-3.57.87-7.33,1.61-11.23,2.18C521.57,936.07,522.9,933.92,524.16,931.71Zm0-27.84c-1.25-2.18-2.59-4.31-3.93-6.38q5.82.85,11.18,2.15c-1,3.52-2.26,7.15-3.68,10.77C526.58,908.23,525.41,906.05,524.13,903.87ZM507.5,890.15c-2.46-.1-5-.19-7.5-.19s-5.1.06-7.58.19a105.71,105.71,0,0,1,7.5-8.72A114.37,114.37,0,0,1,507.5,890.15Zm-37.93-25a6.08,6.08,0,0,1,3.14-.71v0c5.64,0,14,4.5,22.9,12.71a129.42,129.42,0,0,0-11.26,13.6,129.07,129.07,0,0,0-17.34,3c-.63-2.72-1.09-5.37-1.42-7.9C464.31,875.43,465.89,867.33,469.57,865.18Zm-6.87,69.23c-2.7-.85-5.26-1.78-7.63-2.78-9.66-4.12-15.9-9.52-15.9-13.8s6.24-9.71,15.9-13.8c2.34-1,4.9-1.91,7.55-2.75a130.83,130.83,0,0,0,6.13,16.6A130.68,130.68,0,0,0,462.7,934.41Zm10.12,36.91a6.43,6.43,0,0,1-3.08-.73c-3.71-2.13-5.32-10.23-4.07-20.64.3-2.57.79-5.26,1.39-8a131.33,131.33,0,0,0,17.32,3,131.87,131.87,0,0,0,11.34,13.64C486.83,966.8,478.49,971.32,472.82,971.32Zm27.23-17.09a114.59,114.59,0,0,1-7.58-8.73c2.46.11,5,.19,7.5.19s5.1-.05,7.58-.19A105.91,105.91,0,0,1,500.05,954.23Zm30.38,16.25a6.08,6.08,0,0,1-3.14.71c-5.64,0-14-4.5-22.9-12.71a129.42,129.42,0,0,0,11.26-13.6,129.07,129.07,0,0,0,17.34-3,75.63,75.63,0,0,1,1.42,7.93C535.69,960.23,534.11,968.32,530.43,970.48Zm14.48-38.85c-2.35,1-4.91,1.9-7.56,2.75a131.52,131.52,0,0,0-6.13-16.61,129,129,0,0,0,6-16.52c2.7.85,5.26,1.77,7.66,2.78,9.66,4.12,15.9,9.52,15.9,13.8S554.56,927.54,544.91,931.63Z" fill="#61dafb"></path><circle cx="499.97" cy="917.83" r="12.46" fill="#61dafb"></circle></g><path d="M426.88,961.63a69.32,69.32,0,0,0,65.62-47,71,71,0,0,1-118.19,6.64L374.26,936C387,951.63,405.15,961.63,426.88,961.63Z" opacity="0.1"></path><path d="M573.12,961.63a69.32,69.32,0,0,1-65.62-47,71,71,0,0,0,118.19,6.64l0,14.72C613,951.63,594.85,961.63,573.12,961.63Z" opacity="0.1"></path><path d="M407,943.81A69.33,69.33,0,0,1,380.42,831.7" fill="#D67070"></path><path d="M407,943.81a57.14,57.14,0,0,1-31.21-16l-1.62-1.6c-.53-.54-1-1.13-1.53-1.69s-1-1.15-1.48-1.73a22,22,0,0,1-1.43-1.79c-.9-1.23-1.81-2.46-2.68-3.72l-2.37-3.93a69,69,0,0,1-6.71-17.13,70.52,70.52,0,0,1-1.69-18.3,64.09,64.09,0,0,1,3.4-17.93c.26-.71.49-1.43.76-2.14l.88-2.1c.55-1.4,1.26-2.74,1.91-4.09a60.79,60.79,0,0,1,4.74-7.63c.85-1.21,1.82-2.35,2.75-3.49s1.94-2.23,3-3.23a47.65,47.65,0,0,1,6.73-5.59c-5.79,10-9.9,20.19-11.66,30.67A78.09,78.09,0,0,0,367.61,878a84.63,84.63,0,0,0,2,15.41,80.81,80.81,0,0,0,5.12,14.65,76.2,76.2,0,0,0,8.08,13.47,79,79,0,0,0,10.81,11.95A115,115,0,0,0,407,943.81Z" fill="#592d3d"></path><path d="M593.05,943.81A69.33,69.33,0,0,0,619.58,831.7" fill="#D67070"></path><path d="M593.05,943.81a115,115,0,0,0,13.35-10.29,79,79,0,0,0,10.81-11.95,76.2,76.2,0,0,0,8.08-13.47,80.81,80.81,0,0,0,5.12-14.65,84.63,84.63,0,0,0,2-15.41,78.09,78.09,0,0,0-1.15-15.67c-1.76-10.48-5.87-20.64-11.66-30.67a47.65,47.65,0,0,1,6.73,5.59c1.08,1,2,2.14,3,3.23s1.9,2.28,2.75,3.49a60.79,60.79,0,0,1,4.74,7.63c.65,1.35,1.36,2.69,1.91,4.09l.88,2.1c.27.71.5,1.43.76,2.14a64.09,64.09,0,0,1,3.4,17.93,70.52,70.52,0,0,1-1.69,18.3,69,69,0,0,1-6.71,17.13L633,917.26c-.87,1.26-1.78,2.49-2.68,3.72a22,22,0,0,1-1.43,1.79c-.49.58-1,1.16-1.48,1.73s-1,1.15-1.53,1.69l-1.62,1.6A57.14,57.14,0,0,1,593.05,943.81Z" fill="#592d3d"></path><path d="M664.05,702.32c28.31-23,54.41-54.72,70.68-86.1-.06-.1-3.49,3.38-3.55,3.28S710.11,638.28,649.66,638c-76.3-.31-60.54-21.68-152.51-21.68-81.42,0-68.49,11.89-145.15,16.15-62.09,3.45-83.62-13-83.62-13l-.2.33a261.18,261.18,0,0,0,40.56,57.53c4.32,4.65,8.86,9.18,13.48,13.48a193.3,193.3,0,0,0,15.35,13c5.18,3.95,10.67,7.72,16.33,11.21,21.71,12,46.48,21.14,73.63,27.13,6.49,1.43,13,2.64,19.31,3.6,65.81,5.85,141.08,6.7,200.74-31.12C653.21,710.78,658.75,706.63,664.05,702.32Z" opacity="0.15"></path><circle cx="311.51" cy="659.14" r="4.18" fill="#592d3d"></circle><circle cx="338.51" cy="663.32" r="2.96" fill="#592d3d"></circle><circle cx="401.05" cy="707.98" r="2.96" fill="#592d3d"></circle><circle cx="506.83" cy="711.31" r="2.96" fill="#592d3d"></circle><circle cx="517.63" cy="704.5" r="2.96" fill="#592d3d"></circle><circle cx="578.33" cy="701.54" r="2.96" fill="#592d3d"></circle><circle cx="581.29" cy="683.15" r="2.96" fill="#592d3d"></circle><circle cx="391.69" cy="690.72" r="5.37" fill="#592d3d"></circle><circle cx="600.44" cy="707.45" r="2.09" fill="#592d3d"></circle><circle cx="642.96" cy="696.08" r="4.18" fill="#592d3d"></circle><circle cx="462.56" cy="724.04" r="4.18" fill="#592d3d"></circle><circle cx="642.96" cy="663.22" r="2.96" fill="#592d3d"></circle><circle cx="654.05" cy="673.06" r="2.96" fill="#592d3d"></circle><path d="M703.51,506.11V519a49.59,49.59,0,0,1-1.94,25.32,45.67,45.67,0,0,1-3.51,7.65c-3.35,8.71-12.35,15.71-21.35,18.71-14,4-31,2-42-9-14-15-12-37-12.45-55.62" fill="none" stroke="#592d3d" stroke-linecap="round" stroke-miterlimit="10" stroke-width="12px"></path><path d="M376.69,505.7c2.34,26.61-1.66,63.61-36.13,67.17a45.89,45.89,0,0,1-8.12,0A43.6,43.6,0,0,1,310,564.31c-18-15-14-39-13.95-58.62" fill="none" stroke="#592d3d" stroke-linecap="round" stroke-miterlimit="10" stroke-width="12px"></path><path d="M463.75,593.17c15.55,0,25.12,12.76,36.49,12.76s25.91-12.76,41.27-12.76,23.72,11.12,23.72,26.52c0,16.65-16.75,46-62.6,46s-65.4-27.74-65.4-45.45C437.23,603.89,448.2,593.17,463.75,593.17Z" fill="#ffffff" stroke="#592d3d" stroke-miterlimit="10" stroke-width="12px"></path><line x1="477.85" y1="596.6" x2="477.85" y2="662.1" fill="none" stroke="#592d3d" stroke-miterlimit="10" stroke-width="12px"></line><line x1="526.99" y1="596.6" x2="526.99" y2="662.1" fill="none" stroke="#592d3d" stroke-miterlimit="10" stroke-width="12px"></line><path d="M559.29,397.34c-12.87,24-60,37.44-63.83,31.42-4.3-6.73,37.84-55.32,13.9-106.14" fill="#C6854E"></path><path d="M746.9,365.72c-43.51-90.29-140.27-142-244.74-142-131.19,0-253.5,95-275.32,223.74,0,0,202.41,15.32,275.25-67.4C511.7,384.77,658.18,457.67,746.9,365.72Z" fill="#ffffff"></path><path d="M502.16,233.15a361.93,361.93,0,0,0-51.86,7.33l-12.68,3.05c-4.2,1.13-8.36,2.37-12.54,3.55l-12.39,4c-4.09,1.46-8.13,3-12.2,4.54a339.08,339.08,0,0,0-46.87,22.71,388.52,388.52,0,0,0-43.25,29.58,233,233,0,0,1,40.79-33.56,258.22,258.22,0,0,1,47.14-24.31c4.17-1.5,8.32-3.06,12.5-4.51,4.24-1.29,8.44-2.7,12.7-3.9s8.58-2.19,12.89-3.21,8.68-1.76,13-2.53A224.82,224.82,0,0,1,502.16,233.15Z" fill="#592d3d"></path><path d="M537.23,398.81C526.9,418.12,489.07,428.88,486,424c-3.45-5.4,30.38-44.42,11.16-85.22" fill="#ffffff"></path><path d="M240.15,454.33s185.57,8.28,259.86-72c-5,19.52-15.75,34.09-13.79,37.16,2.89,4.53,38-5.42,48.16-23.35,45.56,19,131.48,41.33,206.15-16.09" fill="none" stroke="#592d3d" stroke-miterlimit="10" stroke-width="12px"></path><path d="M600.89,460.57a318.14,318.14,0,0,1,33.51-6.65l-2.66.35c13.18-1.74,26.54-2.25,39.75-.48l-2.66-.36c3.27.46,6.54,1,9.82,1.42l-2.66-.36a221,221,0,0,1,29.48,6.11c5,1.39,11.1-1.73,12.3-7a10.19,10.19,0,0,0-7-12.3,239.21,239.21,0,0,0-34.59-6.78l2.66.36a143,143,0,0,0-33.44-1.95,235.08,235.08,0,0,0-33.09,4.55c-5.62,1.13-11.2,2.43-16.76,3.8-5.08,1.25-8.62,7.26-7,12.3a10.19,10.19,0,0,0,12.3,7Z" fill="#592d3d"></path><path d="M286.14,460.6a202.56,202.56,0,0,1,29.25-6.19l-2.66.36a195.53,195.53,0,0,1,51.38.08l-2.66-.35a218.94,218.94,0,0,1,29.45,6.1c5,1.4,11.1-1.73,12.3-7a10.19,10.19,0,0,0-7-12.3A227.26,227.26,0,0,0,352,433.6a208.27,208.27,0,0,0-71.22,7.71,10.39,10.39,0,0,0-6,4.6,10.2,10.2,0,0,0-1,7.7c1.65,5.11,6.91,8.54,12.3,7Z" fill="#592d3d"></path><g transform="scale(1.12)" style="transform-origin: center center;"><path d="M765.63,495.43s.3-2.94.8-8.24C759.75,345.82,643,233.25,500,233.25c-147.32,0-266.75,119.43-266.75,266.75,0,7.28.31,14.49.89,21.63,12.11-39.32,161.32-77.95,298.44-133.08C631.75,452.24,765.63,495.43,765.63,495.43Z" opacity="0.15"></path><path d="M747.94,163.66l0,0C684.65,74.76,266,93.83,204.16,155.69c-66.94,66.94,29.18,351,29.18,351,0-41.1,160.33-82.31,303.37-139.83,99.17,63.69,228.92,108.54,228.92,108.54S793.59,209.32,747.94,163.66Z" fill="#FFFFFF"></path><path d="M610.06,159.09c-36.6-4-184.31-1.44-322.45,25.65A481,481,0,0,0,235,197.59c-4.25,1.37-8.49,2.76-12.62,4.33s-8.24,3.18-12.18,5a112.44,112.44,0,0,0-11.34,5.93c-3.54,2.16-10.85,8.81-13.51,11.39l-7.3-15.56a69.81,69.81,0,0,1,12.33-9.59,116.58,116.58,0,0,1,13-6.93,217.66,217.66,0,0,1,26.74-10.11,460.64,460.64,0,0,1,54.55-12.9c18.3-3.27,36.69-5.71,55.1-7.7s35.8-7.94,54.26-8.88C494.59,148.61,592.19,154.62,610.06,159.09Z" fill="#E2E2E2"></path><path d="M188.17,320.14c3.47-1.42,6.8-2.75,10.2-4.07s6.78-2.61,10.18-3.87c6.79-2.57,13.62-5,20.45-7.36q20.52-7.09,41.26-13.47c6.91-2.14,13.82-4.25,20.78-6.22l10.42-3c3.47-1,6.94-2,10.44-2.93l20.94-5.59,21-5.25C382,261.7,484.59,232.18,513.37,230c-7,1.8-168.2,54.82-176.74,57.39L316,293.56q-20.57,6.22-41,12.91c-6.83,2.16-13.6,4.47-20.38,6.76s-13.54,4.65-20.3,7l-10.1,3.61q-5.07,1.77-10.08,3.64l-10,3.71c-3.32,1.23-6.69,2.52-9.9,3.78Z" fill="#E2E2E2"></path><path d="M711.7,270.48c-39.92,36.15-102.55,67-169.48,94.19l16.51,15.78h0S659.21,340.49,711.7,270.48Z" fill="#E2E2E2"></path><path d="M214.45,457.18a24.45,24.45,0,0,1,.66-5.43,27,27,0,0,1,1.75-4.9,36.8,36.8,0,0,1,5.26-8,72.69,72.69,0,0,1,13-11.7,206,206,0,0,1,28.63-16.72c19.57-9.69,39.67-17.6,59.8-25.27s40.4-14.82,60.64-22S424.76,349,445,341.87c40.42-14.25,79.8-31.3,119.21-47.95,9.86-4.14,93.82-54.66,102.72-60.67-8.32,6.8-67.53,50.51-99.82,67.22-39.1,18-78.43,35.84-118.64,50.95-20.13,7.5-40.29,14.87-60.43,22.25s-40.27,14.71-60.19,22.46c-10,3.88-19.86,7.85-29.66,12s-19.51,8.46-28.95,13.15A195.93,195.93,0,0,0,242.3,437a64.46,64.46,0,0,0-10.93,9.68c-3,3.49-7.94,11.25-7.92,14.53Z" fill="#E2E2E2"></path><path d="M747.94,163.66l0,0C684.65,74.76,266,93.83,204.16,155.69c-66.94,66.94,29.18,351,29.18,351,0-41.1,160.33-82.31,303.37-139.83,99.17,63.69,228.92,108.54,228.92,108.54S793.59,209.32,747.94,163.66Z" fill="none" stroke="#592d3d" stroke-miterlimit="10" stroke-width="12px"></path><path d="M534.47,361.33c16.1-6.69,32.19-13.37,48.12-20.36l6-2.61,5.95-2.67,6-2.66,5.91-2.76,5.92-2.73c2-.91,3.92-1.88,5.88-2.81,3.91-1.89,7.83-3.75,11.69-5.74q23.34-11.6,45.56-25.15a427.09,427.09,0,0,0,43-29.7c-1.44,1.66-2.86,3.34-4.34,5s-2.9,3.33-4.49,4.84c-3.12,3.11-6.22,6.29-9.55,9.17-1.64,1.49-3.31,2.92-5,4.39s-3.41,2.8-5.12,4.21-3.45,2.76-5.2,4.11l-5.32,4A448.92,448.92,0,0,1,634.62,328c-3.84,2.18-7.74,4.23-11.63,6.29s-7.8,4.1-11.74,6.08l-5.9,3-6,2.87c-4,1.91-7.92,3.84-11.93,5.64q-24,11.06-48.52,20.65Z" fill="#592d3d"></path><path d="M769.08,431.09c-1.42-.23-2.71-.46-4-.72s-2.63-.53-3.94-.82c-2.62-.55-5.2-1.21-7.79-1.86q-7.74-2-15.34-4.43a315.52,315.52,0,0,1-29.83-11.2A306.66,306.66,0,0,1,679.61,398a208.59,208.59,0,0,1-26.43-17.56c2.42,1.09,4.82,2.19,7.19,3.35s4.7,2.34,7.12,3.39c4.77,2.18,9.47,4.49,14.28,6.55q14.25,6.56,28.91,12l7.33,2.71L725.4,411c4.94,1.65,9.9,3.22,14.89,4.67s10,2.83,15,4.13l3.77.91c1.26.32,2.52.62,3.78.89,2.5.57,5.08,1.14,7.49,1.59Z" fill="#592d3d"></path><path d="M615.36,160c-36.49-4.61-73.12-6.62-109.74-7.18s-73.25.43-109.73,3.15c-18.24,1.33-36.45,3.08-54.58,5.35s-36.18,5-54.06,8.36a484.87,484.87,0,0,0-52.83,12.84,211.12,211.12,0,0,0-25,9.44A113.77,113.77,0,0,0,197.84,198a56.05,56.05,0,0,0-9.85,7.45L179.5,197a67.76,67.76,0,0,1,12-9.28,115.9,115.9,0,0,1,12.81-6.8,226.14,226.14,0,0,1,26.49-10A457.87,457.87,0,0,1,285.08,158c36.5-6.53,73.31-10.19,110.17-12.17a1068.52,1068.52,0,0,1,110.62-.17c9.2.53,18.4,1.16,27.59,1.94s18.35,1.78,27.49,2.93A542.75,542.75,0,0,1,615.36,160Z" fill="#592d3d"></path><path d="M210.05,449.36a24.5,24.5,0,0,1,.64-5.37,26.93,26.93,0,0,1,1.71-4.87,36.36,36.36,0,0,1,5.18-8,71.43,71.43,0,0,1,12.89-11.68,202.41,202.41,0,0,1,28.39-16.69c19.41-9.65,39.35-17.52,59.32-25.14s40.08-14.74,60.17-21.86,40.21-14,60.25-21.15c40.11-14.17,80-28.92,119.07-45.49q14.67-6.18,29.14-12.83t28.69-13.79q14.22-7.17,28-15.08t27.08-16.87c-8.25,6.75-16.94,13-25.81,18.91s-18,11.55-27.24,16.89S598.9,276.71,589.4,281.6s-19.15,9.51-28.82,14c-38.79,18-78.6,33.46-118.5,48.49-20,7.46-40,14.78-59.95,22.12s-39.95,14.62-59.72,22.33c-9.87,3.85-19.7,7.81-29.41,11.95s-19.35,8.41-28.71,13.08a191.39,191.39,0,0,0-26.63,15.63,63.16,63.16,0,0,0-10.78,9.64c-3,3.47-4.85,7.2-4.83,10.48Z" fill="#592d3d"></path><path d="M184.48,311.25C198,305.7,211.57,300.86,225.22,296s27.38-9.26,41.18-13.53c27.6-8.52,55.41-16.36,83.45-23.23S406,246,434.45,240.93L445.09,239l5.33-1,5.34-.85L477.15,234c7.13-1.1,14.3-1.92,21.46-2.74s14.33-1.6,21.5-2.31q-10.54,2.44-21.09,4.73c-7,1.55-14.09,2.94-21.08,4.63-14,3.22-28.07,6.22-42,9.66q-42,9.66-83.48,21.17l-20.73,5.79L311.07,281c-13.74,4.12-27.44,8.36-41.07,12.81-6.84,2.15-13.63,4.46-20.42,6.74s-13.57,4.62-20.35,6.94c-13.48,4.75-27,9.69-40.19,14.83Z" fill="#592d3d"></path></g><circle cx="382.91" cy="594.66" r="33.84" fill="#ffffff" opacity="0.2"></circle><path d="M375.87,631l43.31-41.74a147.47,147.47,0,0,0-7.57-12.9l-45.87,44.21C367.64,621.9,373.72,630.08,375.87,631Z" fill="#ffffff" opacity="0.4"></path><circle cx="382.91" cy="594.66" r="33.84" fill="none" stroke="#592d3d" stroke-miterlimit="10" stroke-width="12px"></circle><path d="M378,580.47c1.22,3.83-3.5,6.78-7,7.37-3.54,0-5.9-2.36-7.08-5.31-.59-2.95,0-5.9,2.36-7.67,2.95-1.18,7.08-2.36,9.7.67A6.85,6.85,0,0,1,378,580.47Z" fill="#ffffff"></path><path d="M384.32,578.21a2.29,2.29,0,0,1-4.49.19c0-1.77.59-2.36,2.27-2.42a2.22,2.22,0,0,1,2.22,2.22Z" fill="#ffffff"></path><circle cx="615.2" cy="594.66" r="33.84" fill="#ffffff" opacity="0.2"></circle><path d="M610.12,628.11l38.54-38.54c-.21-1.37-5.91-8.1-6.29-9.44l-41.72,41.74C602,622.24,608.75,627.91,610.12,628.11Z" fill="#ffffff" opacity="0.4"></path><circle cx="615.2" cy="594.66" r="33.84" fill="none" stroke="#592d3d" stroke-miterlimit="10" stroke-width="12px"></circle><path d="M607.36,579.91c1,3.25-3,5.75-6,6.25-3,0-5-2-6-4.5-.5-2.5,0-5,2-6.5,2.5-1,6-2,8.23.57A5.85,5.85,0,0,1,607.36,579.91Z" fill="#ffffff"></path><path d="M612.7,578a1.94,1.94,0,0,1-3.8.16c0-1.5.5-2,1.92-2A1.88,1.88,0,0,1,612.7,578Z" fill="#ffffff"></path><path d="M416.74,594.66q83.68-30,164.63,0" fill="none" stroke="#592d3d" stroke-miterlimit="10" stroke-width="12px"></path><path d="M615.2,634.5A39.9,39.9,0,0,1,575.6,599c-50-17.65-101.46-17.64-153.1,0a39.81,39.81,0,0,1-50.92,33.84,38,38,0,0,0,54.51-29.91c49.22-16.86,98.28-16.88,145.93,0a38,38,0,0,0,54.51,30A40,40,0,0,1,615.2,634.5Z" opacity="0.15"></path></g></svg>